<?xml version="1.0" encoding="UTF-8"?>
<!DOCTYPE svg PUBLIC "-//W3C//DTD SVG 1.1//EN" "http://www.w3.org/Graphics/SVG/1.1/DTD/svg11.dtd">
<svg xmlns="http://www.w3.org/2000/svg" version="1.1" width="3425px" height="1176px" style="shape-rendering:geometricPrecision; text-rendering:geometricPrecision; image-rendering:optimizeQuality; fill-rule:evenodd; clip-rule:evenodd" xmlns:xlink="http://www.w3.org/1999/xlink">
<g><path style="opacity:0.976" fill="#fb436f" d="M 241.5,-0.5 C 470.167,-0.5 698.833,-0.5 927.5,-0.5C 927.756,1.77613 929.09,2.9428 931.5,3C 936.259,6.41871 939.426,10.9187 941,16.5C 941.833,72.1697 941.667,127.836 940.5,183.5C 937.503,191.68 931.836,197.18 923.5,200C 697.167,200.667 470.833,200.667 244.5,200C 240.069,198.021 235.902,195.521 232,192.5C 229.759,189.023 227.759,185.356 226,181.5C 225.333,126.833 225.333,72.1667 226,17.5C 227.63,13.9413 229.63,10.608 232,7.5C 235.176,4.68828 238.343,2.02161 241.5,-0.5 Z"/></g>
<g><path style="opacity:0.984" fill="#f7f7f7" d="M 1931.5,471.5 C 1918.72,461.269 1905.72,451.269 1892.5,441.5C 1892.67,401.499 1892.5,361.499 1892,321.5C 1887.18,282.33 1865.34,266.496 1826.5,274C 1807.96,281.538 1795.13,294.704 1788,313.5C 1786.58,329.451 1786.08,345.451 1786.5,361.5C 1763.12,343.448 1739.45,325.782 1715.5,308.5C 1715.5,246.167 1715.5,183.833 1715.5,121.5C 1739.17,121.5 1762.83,121.5 1786.5,121.5C 1786.33,167.168 1786.5,212.835 1787,258.5C 1811.03,218.073 1846.2,202.573 1892.5,212C 1926.07,222.57 1947.9,244.737 1958,278.5C 1960.53,288.354 1962.2,298.354 1963,308.5C 1963.5,362.832 1963.67,417.166 1963.5,471.5C 1952.83,471.5 1942.17,471.5 1931.5,471.5 Z"/></g>
<g><path style="opacity:0.981" fill="#fdfdfd" d="M 1293.5,125.5 C 1317.83,125.5 1342.17,125.5 1366.5,125.5C 1366.67,205.501 1366.5,285.501 1366,365.5C 1361.86,422.633 1332.03,458.133 1276.5,472C 1243.49,479.161 1211.49,476.161 1180.5,463C 1163.28,453.949 1148.61,441.783 1136.5,426.5C 1151.85,409.649 1167.02,392.649 1182,375.5C 1195.68,391.423 1212.85,401.257 1233.5,405C 1268.92,407.209 1288.76,390.709 1293,355.5C 1293.5,278.834 1293.67,202.167 1293.5,125.5 Z"/></g>
<g><path style="opacity:0.983" fill="#fcfcfc" d="M 1609.5,227.5 C 1621.13,236.984 1633.13,245.984 1645.5,254.5C 1654.9,264.281 1662.07,275.614 1667,288.5C 1679.34,321.411 1680.67,354.744 1671,388.5C 1650.45,439.018 1612.95,467.852 1558.5,475C 1492.61,479.659 1445.45,452.492 1417,393.5C 1405.67,360.159 1405.67,326.826 1417,293.5C 1436.41,249.105 1469.91,221.938 1517.5,212C 1550.26,205.657 1580.93,210.823 1609.5,227.5 Z M 1536.5,272.5 C 1582.16,274.159 1606.49,297.825 1609.5,343.5C 1607.52,381.641 1587.85,404.474 1550.5,412C 1523.65,413.49 1502.48,403.323 1487,381.5C 1477.31,362.399 1474.97,342.399 1480,321.5C 1489.1,293.892 1507.94,277.559 1536.5,272.5 Z"/></g>
<g><path style="opacity:0.987" fill="#f5f5f5" d="M 2151.5,209.5 C 2197.67,206.159 2230.84,225.159 2251,266.5C 2256.15,280.037 2259.15,294.037 2260,308.5C 2260.5,362.499 2260.67,416.499 2260.5,470.5C 2236.83,470.5 2213.17,470.5 2189.5,470.5C 2189.67,420.832 2189.5,371.166 2189,321.5C 2184.18,282.33 2162.34,266.496 2123.5,274C 2104.96,281.538 2092.13,294.704 2085,313.5C 2083.52,365.795 2083.02,418.128 2083.5,470.5C 2059.83,470.5 2036.17,470.5 2012.5,470.5C 2012.5,385.167 2012.5,299.833 2012.5,214.5C 2036.17,214.5 2059.83,214.5 2083.5,214.5C 2083.33,229.17 2083.5,243.837 2084,258.5C 2099.15,231.822 2121.65,215.489 2151.5,209.5 Z"/></g>
<g><path style="opacity:0.716" fill="#f8f9f8" d="M 1609.5,227.5 C 1620.97,233.407 1631.64,240.574 1641.5,249C 1643.44,250.432 1644.77,252.265 1645.5,254.5C 1633.13,245.984 1621.13,236.984 1609.5,227.5 Z"/></g>
<g><path style="opacity:0.982" fill="#fafafa" d="M 1715.5,308.5 C 1739.45,325.782 1763.12,343.448 1786.5,361.5C 1786.5,398.167 1786.5,434.833 1786.5,471.5C 1762.83,471.5 1739.17,471.5 1715.5,471.5C 1715.5,417.167 1715.5,362.833 1715.5,308.5 Z"/></g>
<g><path style="opacity:0.927" fill="#f9faf9" d="M 1892.5,441.5 C 1905.72,451.269 1918.72,461.269 1931.5,471.5C 1918.5,471.5 1905.5,471.5 1892.5,471.5C 1892.5,461.5 1892.5,451.5 1892.5,441.5 Z"/></g>
<g><path style="opacity:0.004" fill="#fefffe" d="M 251.5,499.5 C 477.666,498.334 704,498.167 930.5,499C 704.167,499.5 477.834,499.667 251.5,499.5 Z"/></g>
<g><path style="opacity:0.973" fill="#fefffe" d="M 49.5,1175.5 C 32.8333,1175.5 16.1667,1175.5 -0.5,1175.5C -0.5,1106.17 -0.5,1036.83 -0.5,967.5C 11.1569,965.556 22.8236,963.39 34.5,961C 59.6885,953.705 84.3551,944.372 108.5,933C 114.215,928.212 120.548,924.545 127.5,922C 133.658,916.493 140.325,911.826 147.5,908C 153.602,901.357 160.435,895.524 168,890.5C 168.667,889.167 169.333,887.833 170,886.5C 176.342,879.791 182.676,873.125 189,866.5C 194.514,856.794 200.514,847.46 207,838.5C 209.098,834.451 210.431,830.118 211,825.5C 212.158,825.002 212.991,824.169 213.5,823C 218.719,810.013 223.552,796.846 228,783.5C 228.333,780.833 228.667,778.167 229,775.5C 229.333,775.833 229.667,776.167 230,776.5C 231.277,759.521 232.11,742.521 232.5,725.5C 231.397,656.837 231.231,588.17 232,519.5C 235.055,511.779 240.222,505.946 247.5,502C 475.112,500.336 702.778,500.003 930.5,501C 935.841,502.849 940.175,506.016 943.5,510.5C 944.833,571.167 944.833,631.833 943.5,692.5C 939.956,696.207 935.956,699.374 931.5,702C 776.167,702.333 620.833,702.667 465.5,703C 454.998,707.509 446.665,714.509 440.5,724C 441.022,724.561 441.355,725.228 441.5,726C 440.029,733.081 439.196,740.248 439,747.5C 438.667,743.5 438.333,739.5 438,735.5C 437.508,746.511 436.842,757.511 436,768.5C 435.529,770.246 434.862,771.913 434,773.5C 432.34,784.816 430.673,796.149 429,807.5C 427.126,811.423 425.459,815.423 424,819.5C 421.496,831.507 418.83,843.507 416,855.5C 409.192,869.468 403.192,884.468 398,900.5C 393.757,910.134 388.924,919.467 383.5,928.5C 384.855,929.675 384.688,930.675 383,931.5C 382.667,931.167 382.333,930.833 382,930.5C 378.014,942.135 372.181,952.802 364.5,962.5C 360.206,973.404 353.039,983.737 343,993.5C 336.463,1005.19 328.297,1015.53 318.5,1024.5C 317.568,1026.8 316.735,1029.13 316,1031.5C 314.927,1030.72 313.76,1030.89 312.5,1032C 308,1037.17 303.167,1042 298,1046.5C 296.999,1049.17 295.499,1051.51 293.5,1053.5C 286.687,1057.82 280.687,1062.99 275.5,1069C 268.238,1074.45 261.238,1080.12 254.5,1086C 249.228,1090.54 242.895,1094.54 235.5,1098C 233.5,1100 231.5,1102 229.5,1104C 219.163,1109.17 209.163,1114.83 199.5,1121C 192.664,1124.39 185.664,1127.39 178.5,1130C 176.651,1131.09 174.984,1132.43 173.5,1134C 133.286,1149.97 92.2861,1163.3 50.5,1174C 49.944,1174.38 49.6107,1174.88 49.5,1175.5 Z"/></g>
<g><path style="opacity:0.983" fill="#fefffe" d="M 1136.5,613.5 C 1207.83,613.5 1279.17,613.5 1350.5,613.5C 1350.5,635.833 1350.5,658.167 1350.5,680.5C 1303.5,680.5 1256.5,680.5 1209.5,680.5C 1209.5,704.5 1209.5,728.5 1209.5,752.5C 1244.83,752.5 1280.17,752.5 1315.5,752.5C 1315.5,774.5 1315.5,796.5 1315.5,818.5C 1280.17,818.5 1244.83,818.5 1209.5,818.5C 1209.5,843.167 1209.5,867.833 1209.5,892.5C 1257.83,892.5 1306.17,892.5 1354.5,892.5C 1354.5,914.833 1354.5,937.167 1354.5,959.5C 1281.83,959.5 1209.17,959.5 1136.5,959.5C 1136.5,844.167 1136.5,728.833 1136.5,613.5 Z"/></g>
<g><path style="opacity:0.985" fill="#f3f4f3" d="M 3001.5,636.5 C 3025.17,636.5 3048.83,636.5 3072.5,636.5C 3072.5,658.5 3072.5,680.5 3072.5,702.5C 3090.83,702.5 3109.17,702.5 3127.5,702.5C 3127.5,722.167 3127.5,741.833 3127.5,761.5C 3109.17,761.5 3090.83,761.5 3072.5,761.5C 3072.33,800.501 3072.5,839.501 3073,878.5C 3073.24,890.075 3079.08,896.575 3090.5,898C 3102.77,898.7 3114.77,897.2 3126.5,893.5C 3127.83,913.167 3127.83,932.833 3126.5,952.5C 3110.6,959.573 3093.93,962.573 3076.5,961.5C 3053.84,963.552 3034.01,957.219 3017,942.5C 3007.51,930.17 3002.51,916.17 3002,900.5C 3001.5,854.168 3001.33,807.835 3001.5,761.5C 2989.5,761.5 2977.5,761.5 2965.5,761.5C 2965.5,741.833 2965.5,722.167 2965.5,702.5C 2977.5,702.5 2989.5,702.5 3001.5,702.5C 3001.5,680.5 3001.5,658.5 3001.5,636.5 Z"/></g>
<g><path style="opacity:0.982" fill="#fefefe" d="M 1535.5,697.5 C 1583.29,694.135 1618.79,713.135 1642,754.5C 1656.36,726.811 1678.52,708.645 1708.5,700C 1750.19,690.37 1785.35,701.203 1814,732.5C 1826.02,748.881 1833.35,767.215 1836,787.5C 1837.08,797.135 1837.74,806.801 1838,816.5C 1838.5,864.166 1838.67,911.832 1838.5,959.5C 1814.5,959.5 1790.5,959.5 1766.5,959.5C 1766.67,908.832 1766.5,858.166 1766,807.5C 1758.72,768.098 1735.55,753.265 1696.5,763C 1675.39,772.669 1661.89,788.836 1656,811.5C 1655.5,860.832 1655.33,910.166 1655.5,959.5C 1631.83,959.5 1608.17,959.5 1584.5,959.5C 1584.67,911.166 1584.5,862.832 1584,814.5C 1581.88,781.222 1564.38,762.889 1531.5,759.5C 1498.9,762.599 1479.4,780.266 1473,812.5C 1472.5,861.499 1472.33,910.499 1472.5,959.5C 1448.83,959.5 1425.17,959.5 1401.5,959.5C 1401.5,873.833 1401.5,788.167 1401.5,702.5C 1425.17,702.5 1448.83,702.5 1472.5,702.5C 1472.33,716.837 1472.5,731.171 1473,745.5C 1485.61,718.713 1506.45,702.713 1535.5,697.5 Z"/></g>
<g><path style="opacity:0.985" fill="#fcfcfc" d="M 2020.5,697.5 C 2078.78,693.542 2121.28,717.208 2148,768.5C 2159.18,794.399 2163.18,821.399 2160,849.5C 2153.7,897.763 2128.87,932.596 2085.5,954C 2056.49,965.389 2027.16,966.389 1997.5,957C 1981.83,950.986 1969.5,940.986 1960.5,927C 1959.55,926.517 1958.55,926.351 1957.5,926.5C 1957.5,968.5 1957.5,1010.5 1957.5,1052.5C 1933.83,1052.5 1910.17,1052.5 1886.5,1052.5C 1886.5,935.833 1886.5,819.167 1886.5,702.5C 1910.17,702.5 1933.83,702.5 1957.5,702.5C 1957.5,713.167 1957.5,723.833 1957.5,734.5C 1963.8,728.701 1970.14,722.534 1976.5,716C 1989.73,706.212 2004.4,700.045 2020.5,697.5 Z M 2017.5,760.5 C 2045.73,759.199 2067.57,770.199 2083,793.5C 2093.15,815.729 2094.15,838.396 2086,861.5C 2071.57,888.974 2048.73,901.807 2017.5,900C 1972.66,891.454 1952.49,864.287 1957,818.5C 1963.34,784.656 1983.51,765.322 2017.5,760.5 Z"/></g>
<g><path style="opacity:0.982" fill="#f3f4f3" d="M 3424.5,818.5 C 3424.5,828.5 3424.5,838.5 3424.5,848.5C 3415.82,902.687 3385.49,938.854 3333.5,957C 3284.77,971.252 3240.44,962.919 3200.5,932C 3163.77,898.491 3149.27,856.991 3157,807.5C 3168.26,753.907 3200.09,719.074 3252.5,703C 3309.18,689.674 3357.35,704.174 3397,746.5C 3412.38,768.152 3421.55,792.152 3424.5,818.5 Z M 3283.5,760.5 C 3329.16,762.159 3353.49,785.825 3356.5,831.5C 3354.52,869.641 3334.85,892.474 3297.5,900C 3270.65,901.49 3249.48,891.323 3234,869.5C 3224.31,850.399 3221.97,830.399 3227,809.5C 3236.1,781.892 3254.94,765.559 3283.5,760.5 Z"/></g>
<g><path style="opacity:0.984" fill="#f4f4f4" d="M 2907.5,698.5 C 2918.54,698.235 2929.54,698.568 2940.5,699.5C 2940.67,722.502 2940.5,745.502 2940,768.5C 2900.65,762.61 2869.65,775.943 2847,808.5C 2839.87,820.569 2835.53,833.569 2834,847.5C 2833.5,884.832 2833.33,922.165 2833.5,959.5C 2809.83,959.5 2786.17,959.5 2762.5,959.5C 2762.5,873.833 2762.5,788.167 2762.5,702.5C 2786.17,702.5 2809.83,702.5 2833.5,702.5C 2833.33,722.169 2833.5,741.836 2834,761.5C 2846.14,725.877 2870.64,704.877 2907.5,698.5 Z"/></g>
<g><path style="opacity:0.98" fill="#f73f6b" d="M 2742.5,823.5 C 2689.13,783.155 2635.79,742.822 2582.5,702.5C 2651.37,691.182 2701.2,716.515 2732,778.5C 2738.18,792.879 2741.68,807.879 2742.5,823.5 Z"/></g>
<g><path style="opacity:0.991" fill="#f8f8f8" d="M 2267.5,818.5 C 2244.12,800.448 2220.45,782.782 2196.5,765.5C 2196.5,744.5 2196.5,723.5 2196.5,702.5C 2220.17,702.5 2243.83,702.5 2267.5,702.5C 2267.5,741.167 2267.5,779.833 2267.5,818.5 Z"/></g>
<g><path style="opacity:0.989" fill="#f8f8f8" d="M 2444.5,951.5 C 2414.88,929.885 2385.55,907.885 2356.5,885.5C 2364.6,876.629 2370.1,866.296 2373,854.5C 2373.5,803.834 2373.67,753.168 2373.5,702.5C 2397.17,702.5 2420.83,702.5 2444.5,702.5C 2444.5,785.5 2444.5,868.5 2444.5,951.5 Z"/></g>
<g><path style="opacity:0.995" fill="#f63f6a" d="M 2582.5,702.5 C 2635.79,742.822 2689.13,783.155 2742.5,823.5C 2742.5,826.5 2742.5,829.5 2742.5,832.5C 2685.86,790.52 2629.53,748.187 2573.5,705.5C 2576.25,704.054 2579.25,703.054 2582.5,702.5 Z"/></g>
<g><path style="opacity:0.004" fill="#fefffe" d="M 927.5,704.5 C 928.251,703.427 929.251,703.26 930.5,704C 929.552,704.483 928.552,704.649 927.5,704.5 Z"/></g>
<g><path style="opacity:0.975" fill="#f43d69" d="M 2573.5,705.5 C 2629.53,748.187 2685.86,790.52 2742.5,832.5C 2742.26,854.452 2736.6,874.785 2725.5,893.5C 2658.05,842.268 2590.38,791.268 2522.5,740.5C 2535.95,723.73 2552.95,712.063 2573.5,705.5 Z M 2609.5,760.5 C 2650.19,761.497 2672.86,782.164 2677.5,822.5C 2676.99,829.29 2675.82,835.956 2674,842.5C 2641.33,821.167 2608.67,799.833 2576,778.5C 2575.33,777.833 2575.33,777.167 2576,776.5C 2585.62,767.771 2596.79,762.437 2609.5,760.5 Z"/></g>
<g><path style="opacity:0.981" fill="#f13a66" d="M 2522.5,740.5 C 2590.38,791.268 2658.05,842.268 2725.5,893.5C 2707.88,927.111 2680.88,949.444 2644.5,960.5C 2593.83,922.167 2543.17,883.833 2492.5,845.5C 2502.09,843.815 2511.59,841.815 2521,839.5C 2535.19,869.502 2558.02,889.669 2589.5,900C 2610.95,905.22 2629.95,900.553 2646.5,886C 2594.9,852.727 2543.56,819.06 2492.5,785C 2500.41,768.624 2510.41,753.79 2522.5,740.5 Z"/></g>
<g><path style="opacity:0.981" fill="#fafafa" d="M 2196.5,765.5 C 2220.45,782.782 2244.12,800.448 2267.5,818.5C 2267.33,829.505 2267.5,840.505 2268,851.5C 2271.01,886.184 2289.85,902.684 2324.5,901C 2336.92,899.291 2347.58,894.124 2356.5,885.5C 2385.55,907.885 2414.88,929.885 2444.5,951.5C 2444.5,954.167 2444.5,956.833 2444.5,959.5C 2420.83,959.5 2397.17,959.5 2373.5,959.5C 2373.67,944.496 2373.5,929.496 2373,914.5C 2347.17,958.122 2309.67,972.955 2260.5,959C 2223.04,943.284 2202.21,915.117 2198,874.5C 2196.58,838.189 2196.08,801.855 2196.5,765.5 Z"/></g>
<g><path style="opacity:0.992" fill="#ee3864" d="M 2492.5,845.5 C 2543.17,883.833 2593.83,922.167 2644.5,960.5C 2640.52,961.295 2636.52,961.962 2632.5,962.5C 2581.83,924.167 2531.17,885.833 2480.5,847.5C 2484.55,847.048 2488.55,846.381 2492.5,845.5 Z"/></g>
<g><path style="opacity:0.991" fill="#ed3862" d="M 2480.5,847.5 C 2531.17,885.833 2581.83,924.167 2632.5,962.5C 2624.26,964.05 2615.93,964.716 2607.5,964.5C 2561.81,929.48 2515.81,894.814 2469.5,860.5C 2468.84,857.852 2468.17,855.185 2467.5,852.5C 2467.83,851.833 2468.17,851.167 2468.5,850.5C 2472.53,849.496 2476.53,848.496 2480.5,847.5 Z"/></g>
<g><path style="opacity:0.965" fill="#ec3762" d="M 2469.5,860.5 C 2515.81,894.814 2561.81,929.48 2607.5,964.5C 2557.78,960.73 2517.95,939.063 2488,899.5C 2479.69,887.54 2473.52,874.54 2469.5,860.5 Z"/></g>
<g><path style="opacity:0.004" fill="#fb436e" d="M 669.5,973.5 C 669.897,972.475 670.563,972.308 671.5,973C 670.906,973.464 670.239,973.631 669.5,973.5 Z"/></g>
<g><path style="opacity:0.962" fill="#fb436f" d="M 674.5,972.5 C 757.501,972.333 840.501,972.5 923.5,973C 929.236,975.907 934.236,979.74 938.5,984.5C 939.015,986.225 939.682,987.892 940.5,989.5C 941.833,1045.83 941.833,1102.17 940.5,1158.5C 937.532,1166.14 932.198,1171.31 924.5,1174C 802.111,1174.99 679.777,1174.66 557.5,1173C 552.634,1165.28 551.134,1156.78 553,1147.5C 555.96,1142.34 558.627,1137.01 561,1131.5C 561.333,1131.83 561.667,1132.17 562,1132.5C 564.876,1126.58 568.376,1121.08 572.5,1116C 571.483,1114.95 571.316,1113.78 572,1112.5C 572.333,1113.17 572.667,1113.83 573,1114.5C 578.873,1103.3 585.54,1092.64 593,1082.5C 593.822,1080.21 594.489,1077.88 595,1075.5C 605.725,1060.74 615.058,1045.07 623,1028.5C 629.063,1022.61 633.23,1015.61 635.5,1007.5C 639.922,998.918 645.255,990.918 651.5,983.5C 658.649,978.422 666.316,974.756 674.5,972.5 Z"/></g>
</svg>
